<?xml version="1.0" encoding="UTF-8" standalone="no"?>
<!DOCTYPE svg PUBLIC "-//W3C//DTD SVG 1.1//EN" "http://www.w3.org/Graphics/SVG/1.1/DTD/svg11.dtd">
<svg width="100%" height="100%" viewBox="0 0 4961 4961" version="1.1" xmlns="http://www.w3.org/2000/svg" xmlns:xlink="http://www.w3.org/1999/xlink" xml:space="preserve" xmlns:serif="http://www.serif.com/" style="fill-rule:evenodd;clip-rule:evenodd;stroke-linejoin:round;stroke-miterlimit:2;">
    <g transform="matrix(0.577876,-0.577876,0.709802,0.709802,-2186.894166,2620.655265)">
        <path d="M3423.145,2850.421L3423.145,3241.376C3423.145,3398.775 3266.184,3526.563 3072.853,3526.563C2879.521,3526.563 2722.56,3398.775 2722.56,3241.376L2722.56,2839.896C2946.296,2913.552 3196.854,2917.06 3423.145,2850.421Z" style="fill:rgb(0,0,255);"/>
    </g>
    <g transform="matrix(0.527604,0,0,0.527604,-322.825997,1099.322705)">
        <path d="M3269.496,3722.097C3088.139,3799.017 2888.733,3841.571 2679.466,3841.571C1843.965,3841.571 1165.643,3163.249 1165.643,2327.748C1165.643,1492.246 1843.965,813.924 2679.466,813.924C3514.968,813.924 4193.29,1492.246 4193.29,2327.748C4193.29,2556.874 4142.275,2774.18 4050.995,2968.916L3530.846,2448.767C3319.093,2237.014 2975.259,2237.014 2763.506,2448.767C2551.753,2660.52 2551.753,3004.354 2763.506,3216.107L3269.496,3722.097Z" style="fill:rgb(0,0,255);"/>
    </g>
    <g transform="matrix(0.798075,0,0,0.798075,106.574724,106.972326)">
        <g transform="matrix(1189.394559,0,0,1189.394559,5696.360872,3187.422296)">
        </g>
        <text x="2311.697px" y="3187.422px" style="font-family:'!PEPSI!', '! PEPSI !';font-size:1189.395px;fill:rgb(0,0,255);">nuru</text>
    </g>
    <g id="nuru">
    </g>
</svg>
